<?xml version="1.0" encoding="UTF-8"?><svg xmlns="http://www.w3.org/2000/svg" xmlns:xlink="http://www.w3.org/1999/xlink" contentScriptType="text/ecmascript" fill="#000000" width="685.2" zoomAndPan="magnify" contentStyleType="text/css" viewBox="120.5 53.2 685.2 768.1" height="768.1" preserveAspectRatio="xMidYMid meet" version="1"><g><g id="change1_1"><path fill="#e8b181" d="M 448.277344 372.320312 C 432.941406 391.410156 413.910156 407.246094 398.207031 426.035156 C 382.503906 444.828125 369.878906 468.007812 371.113281 492.46875 C 371.980469 509.589844 379.507812 525.570312 386.902344 541.035156 C 408.242188 585.679688 429.585938 630.324219 450.925781 674.96875 C 462.652344 699.5 475.207031 725.054688 497.148438 741.109375 C 504.613281 746.570312 513.339844 750.851562 522.585938 751.066406 C 531.917969 751.28125 540.808594 747.382812 549.222656 743.335938 C 631.824219 703.621094 703.664062 641.792969 755.238281 566.027344 C 770.023438 544.304688 783.320312 521.113281 789.945312 495.683594 C 805.722656 435.132812 781.992188 372.0625 758.65625 314.003906 C 749.246094 290.59375 739.046875 266.09375 719.285156 250.40625 C 708.886719 242.152344 696.40625 236.871094 683.648438 233.191406 C 612.800781 212.753906 543.035156 254.371094 448.277344 372.320312"/></g><g id="change2_1"><path fill="#dfac96" d="M 437.296875 743.347656 C 406.691406 686.144531 376.0625 628.890625 349.097656 569.882812 C 339.1875 548.203125 329.582031 525.21875 331.269531 501.441406 C 332.925781 478.183594 345.195312 457.136719 358.097656 437.71875 C 405.230469 366.777344 465.28125 304.445312 534.414062 254.703125 C 544.796875 247.234375 555.804688 239.566406 561.519531 228.128906 C 567.140625 216.886719 566.785156 203.652344 565.441406 191.15625 C 560.863281 148.570312 546.132812 107.109375 522.8125 71.179688 C 519.847656 66.605469 516.574219 61.964844 511.816406 59.296875 C 500.960938 53.210938 487.570312 59.550781 476.910156 65.976562 C 371.605469 129.429688 277.175781 209.5625 189.242188 295.488281 C 169.371094 314.90625 149.261719 335.457031 139.371094 361.421875 C 120.535156 410.847656 142.929688 465.480469 164.976562 513.558594 C 211.269531 614.492188 257.90625 716.035156 321.277344 807.222656 C 325.003906 812.582031 329.351562 818.300781 335.71875 819.75 C 342.710938 821.347656 349.617188 817.257812 355.589844 813.285156 C 377.769531 798.519531 399.355469 782.851562 437.296875 743.347656"/></g></g></svg>